{"title":"Switchblade Romance (2003) DVDRip - Eng Subs (AC3) -AKHiUgO","uid":4955253,"size":840062976,"categoryP":"video","categoryS":"movies","magnet":"?xt=urn:btih:1c0fa717fdef0aac7d5f72fe27381ff70d77852f&amp;dn=Switchblade+Romance+%282003%29+DVDRip+-+Eng+Subs+%28AC3%29+-AKHiUgO&amp;tr=udp%3A%2F%2Ftracker.openbittorrent.com%3A80&amp;tr=udp%3A%2F%2Fopen.demonii.com%3A1337&amp;tr=udp%3A%2F%2Ftracker.coppersurfer.tk%3A6969&amp;tr=udp%3A%2F%2Fexodus.desync.com%3A6969","seeders":4,"leechers":1,"uploader":"akhiugo","files":-1,"time":1245078933,"description":"Switchblade Romance (2003) Widescreen - aka High Tension, Haute Tension\n---------------------------------------------------------------------------------\n\nTwo female college students, Marie and Alexa, set off to Alex's parents' secluded homestead in the country to relax and study. Come nightfall, Hell pulls up at the front door when a mysterious killer breaks in and kills Alexa's father, mother, brother, and pet dog. Alex is now bound and gagged, taken off by the killer, with Marie not far behind eluding the intruder. Can she save her friend's life in time, or is everything all that it seems...?\n\n----------------------------------------------------------------------------------\n\nGenre: Crime | Drama | Horror | Romance | Thriller\n\nIMDB Rating: 6.8/10 (17,324 votes)\n\n\nGeneral\nComplete name                    : Switchblade Romance (2003) - [akhiugo].avi\nFormat                           : AVI\nLanguage                         : French\nSubtitles                        : English Hardcoded\nFile size                        : 801 MiB\nDuration                         : 1h 26mn\nOverall bit rate                 : 1 288 Kbps\nWriting application              : VirtualDubMod 1.5.4.1 (build 2178/release)\nWriting library                  : VirtualDubMod build 2178/release\n\nVideo\nFormat                           : MPEG-4 Visual\nFormat profile                   : Streaming Video@L1\nFormat settings, BVOP            : Yes\nFormat settings, QPel            : No\nFormat settings, GMC             : No warppoints\nFormat settings, Matrix          : Custom\nCodec ID                         : XVID\nCodec ID/Hint                    : XviD\nDuration                         : 1h 26mn\nBit rate                         : 1 025 Kbps\nWidth                            : 688 pixels\nHeight                           : 304 pixels\nDisplay aspect ratio             : 2.25\nFrame rate                       : 25.000 fps\nResolution                       : 24 bits\nColorimetry                      : 4:2:0\nScan type                        : Progressive\nBits/(Pixel*Frame)               : 0.196\nStream size                      : 638 MiB (80%)\nWriting library                  : XviD 1.2.1 (UTC 2008-12-04)\n\nAudio\nFormat                           : AC-3\nFormat/Info                      : Audio Coding 3\nCodec ID                         : 2000\nDuration                         : 1h 26mn\nBit rate mode                    : Constant\nBit rate                         : 256 Kbps\nChannel(s)                       : 2 channels\nChannel positions                : L R\nSampling rate                    : 48.0 KHz\nStream size                      : 159 MiB (20%)\nAlignment                        : Aligned on interleaves\nInterleave, duration             : 96 ms (2.40 video frames)\nInterleave, preload duration     : 96 ms\n\n\nScreens: &lt;a href=&quot;\nhttp://bayimg.com/iaBdKaacB&quot; rel=&quot;nofollow&quot; target=&quot;_NEW&quot;&gt;\nhttp://bayimg.com/iaBdKaacB&lt;/a&gt; &lt;a href=&quot;\nhttp://bayimg.com/jABdAAaCB&quot; rel=&quot;nofollow&quot; target=&quot;_NEW&quot;&gt;\nhttp://bayimg.com/jABdAAaCB&lt;/a&gt; &lt;a href=&quot;\nhttp://bayimg.com/kabDbAACb&quot; rel=&quot;nofollow&quot; target=&quot;_NEW&quot;&gt;\nhttp://bayimg.com/kabDbAACb&lt;/a&gt; &lt;a href=&quot;\nhttp://bayimg.com/KaBDCaaCB&quot; rel=&quot;nofollow&quot; target=&quot;_NEW&quot;&gt;\nhttp://bayimg.com/KaBDCaaCB&lt;/a&gt;\n\n\nPlease help your fellow pirates by seeding after download!","torrent":{"xt":"urn:btih:1c0fa717fdef0aac7d5f72fe27381ff70d77852f","amp;dn":"Switchblade+Romance+%282003%29+DVDRip+-+Eng+Subs+%28AC3%29+-AKHiUgO","amp;tr":["udp%3A%2F%2Ftracker.openbittorrent.com%3A80","udp%3A%2F%2Fopen.demonii.com%3A1337","udp%3A%2F%2Ftracker.coppersurfer.tk%3A6969","udp%3A%2F%2Fexodus.desync.com%3A6969"],"infoHash":"1c0fa717fdef0aac7d5f72fe27381ff70d77852f","infoHashBuffer":{"type":"Buffer","data":[28,15,167,23,253,239,10,172,125,95,114,254,39,56,31,247,13,119,133,47]},"announce":[],"urlList":[]}}